<svg xmlns="http://www.w3.org/2000/svg" width="16" height="16" viewBox="0 0 16 16" fill="none">
  <path fill-rule="evenodd" clip-rule="evenodd" d="M13.854 2.14592C13.9006 2.19236 13.9375 2.24754 13.9627 2.30828C13.9879 2.36903 14.0009 2.43415 14.0009 2.49992C14.0009 2.56568 13.9879 2.63081 13.9627 2.69155C13.9375 2.7523 13.9006 2.80747 13.854 2.85392L2.85399 13.8539C2.76011 13.9478 2.63277 14.0005 2.49999 14.0005C2.36722 14.0005 2.23988 13.9478 2.14599 13.8539C2.05211 13.76 1.99936 13.6327 1.99936 13.4999C1.99936 13.3671 2.05211 13.2398 2.14599 13.1459L13.146 2.14592C13.1924 2.09935 13.2476 2.06241 13.3084 2.0372C13.3691 2.012 13.4342 1.99902 13.5 1.99902C13.5658 1.99902 13.6309 2.012 13.6916 2.0372C13.7524 2.06241 13.8075 2.09935 13.854 2.14592Z" fill="#303436"/>
  <path fill-rule="evenodd" clip-rule="evenodd" d="M2.14599 2.14592C2.09943 2.19236 2.06249 2.24754 2.03728 2.30828C2.01207 2.36903 1.9991 2.43415 1.9991 2.49992C1.9991 2.56568 2.01207 2.63081 2.03728 2.69155C2.06249 2.7523 2.09943 2.80747 2.14599 2.85392L13.146 13.8539C13.2399 13.9478 13.3672 14.0005 13.5 14.0005C13.6328 14.0005 13.7601 13.9478 13.854 13.8539C13.9479 13.76 14.0006 13.6327 14.0006 13.4999C14.0006 13.3671 13.9479 13.2398 13.854 13.1459L2.85399 2.14592C2.80755 2.09935 2.75237 2.06241 2.69163 2.0372C2.63088 2.012 2.56576 1.99902 2.49999 1.99902C2.43423 1.99902 2.36911 2.012 2.30836 2.0372C2.24761 2.06241 2.19244 2.09935 2.14599 2.14592Z" fill="#303436"/>
</svg>