<svg xmlns="http://www.w3.org/2000/svg" width="144" height="26" viewBox="0 0 144 26" fill="none">
  <path fill-rule="evenodd" clip-rule="evenodd" d="M9.38349 0.67738C8.98032 0.274207 8.32665 0.274207 7.92347 0.67738C7.5203 1.08055 7.5203 1.73423 7.92347 2.1374L9.21372 3.42764C4.17592 3.94432 0.246094 8.20073 0.246094 13.375C0.246094 16.9943 2.16882 20.1645 5.04856 21.9199C5.58739 22.2483 6.26185 21.929 6.42518 21.3194C6.55029 20.8525 6.32674 20.3675 5.92031 20.1058C3.70991 18.6822 2.24609 16.1996 2.24609 13.375C2.24609 9.69014 4.7374 6.58716 8.12755 5.65853L7.92347 5.8626C7.5203 6.26577 7.5203 6.91945 7.92347 7.32262C8.32665 7.72579 8.98032 7.72579 9.38349 7.32262L11.9761 4.73001C12.3793 4.32684 12.3793 3.67316 11.9761 3.26999L9.38349 0.67738ZM10.5161 25.3226C10.9193 25.7258 11.573 25.7258 11.9761 25.3226C12.3793 24.9194 12.3793 24.2658 11.9761 23.8626L11.4203 23.3068C16.3898 22.7255 20.2461 18.5006 20.2461 13.375C20.2461 9.64516 18.2041 6.39225 15.177 4.67325C14.64 4.36829 13.9871 4.689 13.8273 5.28551C13.6992 5.76353 13.9376 6.25851 14.3618 6.51347C16.689 7.91241 18.2461 10.4619 18.2461 13.375C18.2461 17.6225 14.9358 21.0969 10.7544 21.3591L11.9761 20.1374C12.3793 19.7342 12.3793 19.0806 11.9761 18.6774C11.573 18.2742 10.9193 18.2742 10.5161 18.6774L7.92349 21.27C7.52032 21.6732 7.52032 22.3268 7.92349 22.73L10.5161 25.3226ZM14.6533 9.79289C15.0438 10.1834 15.0438 10.8166 14.6533 11.2071L10.1533 15.7071C10.1293 15.7311 10.1043 15.7536 10.0786 15.7747C10.0445 15.8242 10.0055 15.8713 9.96142 15.9153C9.5709 16.3059 8.93773 16.3059 8.54721 15.9153L6.08897 13.4571C5.69845 13.0666 5.69845 12.4334 6.08897 12.0429C6.4795 11.6524 7.11266 11.6524 7.50319 12.0429L9.24612 13.7858L13.2391 9.79289C13.6296 9.40237 14.2627 9.40237 14.6533 9.79289Z" fill="#253DF4"/>
  <path d="M140.601 20.7514V9.84233H143.627V20.7514H140.601ZM142.121 8.43608C141.671 8.43608 141.285 8.28693 140.963 7.98864C140.646 7.68561 140.487 7.32339 140.487 6.90199C140.487 6.48532 140.646 6.12784 140.963 5.82955C141.285 5.52652 141.671 5.375 142.121 5.375C142.571 5.375 142.954 5.52652 143.271 5.82955C143.593 6.12784 143.754 6.48532 143.754 6.90199C143.754 7.32339 143.593 7.68561 143.271 7.98864C142.954 8.28693 142.571 8.43608 142.121 8.43608Z" fill="black"/>
  <path d="M132.11 20.9574C131.414 20.9574 130.794 20.8366 130.249 20.5952C129.705 20.349 129.274 19.9867 128.957 19.5085C128.644 19.0256 128.488 18.4242 128.488 17.7045C128.488 17.0985 128.599 16.5895 128.822 16.1776C129.044 15.7656 129.347 15.4342 129.731 15.1832C130.114 14.9323 130.55 14.7429 131.038 14.6151C131.53 14.4872 132.046 14.3973 132.586 14.3452C133.22 14.2789 133.732 14.2173 134.12 14.1605C134.508 14.099 134.79 14.009 134.965 13.8906C135.14 13.7723 135.228 13.5971 135.228 13.3651V13.3224C135.228 12.8726 135.086 12.5246 134.802 12.2784C134.522 12.0322 134.125 11.9091 133.609 11.9091C133.064 11.9091 132.631 12.0298 132.309 12.2713C131.987 12.5081 131.774 12.8063 131.67 13.1662L128.871 12.9389C129.013 12.276 129.293 11.7031 129.709 11.2202C130.126 10.7325 130.663 10.3584 131.322 10.098C131.984 9.83286 132.752 9.70029 133.623 9.70029C134.229 9.70029 134.809 9.77131 135.363 9.91335C135.922 10.0554 136.416 10.2756 136.847 10.5739C137.283 10.8722 137.626 11.2557 137.877 11.7244C138.128 12.1884 138.253 12.7448 138.253 13.3935V20.7514H135.384V19.2386H135.299C135.124 19.5795 134.889 19.8802 134.596 20.1406C134.302 20.3963 133.949 20.5975 133.538 20.7443C133.126 20.8864 132.65 20.9574 132.11 20.9574ZM132.976 18.8693C133.422 18.8693 133.815 18.7817 134.155 18.6065C134.496 18.4266 134.764 18.1851 134.958 17.8821C135.152 17.5791 135.249 17.2358 135.249 16.8523V15.6946C135.154 15.7562 135.024 15.813 134.859 15.8651C134.698 15.9124 134.515 15.9574 134.312 16C134.108 16.0379 133.904 16.0734 133.701 16.1065C133.497 16.1349 133.313 16.161 133.147 16.1847C132.792 16.2367 132.482 16.3196 132.216 16.4332C131.951 16.5469 131.745 16.7008 131.599 16.8949C131.452 17.0843 131.378 17.321 131.378 17.6051C131.378 18.017 131.528 18.3319 131.826 18.5497C132.129 18.7628 132.512 18.8693 132.976 18.8693Z" fill="black"/>
  <path d="M124.811 20.9361C124.342 20.9361 123.94 20.7704 123.604 20.4389C123.272 20.1028 123.106 19.7003 123.106 19.2315C123.106 18.7675 123.272 18.3698 123.604 18.0384C123.94 17.7069 124.342 17.5412 124.811 17.5412C125.266 17.5412 125.663 17.7069 126.004 18.0384C126.345 18.3698 126.516 18.7675 126.516 19.2315C126.516 19.544 126.435 19.8305 126.274 20.0909C126.118 20.3466 125.912 20.5526 125.656 20.7088C125.4 20.8603 125.119 20.9361 124.811 20.9361Z" fill="black"/>
  <path d="M109.667 20.7514L106.698 9.84233H109.759L111.45 17.1719H111.549L113.31 9.84233H116.315L118.104 17.1293H118.197L119.859 9.84233H122.913L119.951 20.7514H116.748L114.873 13.8906H114.738L112.863 20.7514H109.667Z" fill="black"/>
  <path d="M100.452 20.9645C99.3486 20.9645 98.3945 20.7301 97.5896 20.2614C96.7894 19.7879 96.1715 19.1297 95.7359 18.2869C95.3003 17.4394 95.0825 16.4569 95.0825 15.3395C95.0825 14.2126 95.3003 13.2277 95.7359 12.3849C96.1715 11.5374 96.7894 10.8793 97.5896 10.4105C98.3945 9.93703 99.3486 9.70029 100.452 9.70029C101.555 9.70029 102.507 9.93703 103.307 10.4105C104.112 10.8793 104.732 11.5374 105.168 12.3849C105.603 13.2277 105.821 14.2126 105.821 15.3395C105.821 16.4569 105.603 17.4394 105.168 18.2869C104.732 19.1297 104.112 19.7879 103.307 20.2614C102.507 20.7301 101.555 20.9645 100.452 20.9645ZM100.466 18.6207C100.968 18.6207 101.387 18.4787 101.723 18.1946C102.059 17.9058 102.313 17.5128 102.483 17.0156C102.658 16.5185 102.746 15.9527 102.746 15.3182C102.746 14.6837 102.658 14.1179 102.483 13.6207C102.313 13.1236 102.059 12.7306 101.723 12.4418C101.387 12.1529 100.968 12.0085 100.466 12.0085C99.9594 12.0085 99.5333 12.1529 99.1876 12.4418C98.8467 12.7306 98.5887 13.1236 98.4135 13.6207C98.243 14.1179 98.1578 14.6837 98.1578 15.3182C98.1578 15.9527 98.243 16.5185 98.4135 17.0156C98.5887 17.5128 98.8467 17.9058 99.1876 18.1946C99.5333 18.4787 99.9594 18.6207 100.466 18.6207Z" fill="black"/>
  <path d="M93.0993 6.20596V20.7514H90.0737V6.20596H93.0993Z" fill="black"/>
  <path d="M88.2251 9.84232V12.115H81.4922V9.84232H88.2251ZM83.0334 20.7514V9.05397C83.0334 8.26325 83.1873 7.60747 83.495 7.08664C83.8075 6.56581 84.2337 6.17518 84.7734 5.91476C85.3132 5.65435 85.9264 5.52414 86.6129 5.52414C87.0769 5.52414 87.5007 5.55965 87.8842 5.63067C88.2725 5.7017 88.5613 5.76562 88.7507 5.82244L88.2109 8.09516C88.0926 8.05728 87.9458 8.02177 87.7706 7.98863C87.6001 7.95548 87.425 7.93891 87.245 7.93891C86.8 7.93891 86.4898 8.04308 86.3146 8.25141C86.1394 8.45501 86.0518 8.74147 86.0518 9.11079V20.7514H83.0334Z" fill="black"/>
  <path d="M80.2052 12.9531L77.4353 13.1236C77.3879 12.8868 77.2861 12.6738 77.1299 12.4844C76.9736 12.2902 76.7677 12.1364 76.512 12.0227C76.261 11.9044 75.9604 11.8452 75.61 11.8452C75.1412 11.8452 74.7459 11.9446 74.4239 12.1435C74.102 12.3376 73.941 12.598 73.941 12.9247C73.941 13.1851 74.0451 13.4053 74.2535 13.5852C74.4618 13.7652 74.8193 13.9096 75.3259 14.0185L77.3003 14.4162C78.3609 14.634 79.1517 14.9844 79.6725 15.4673C80.1933 15.9503 80.4538 16.5848 80.4538 17.3707C80.4538 18.0857 80.243 18.7131 79.8216 19.2528C79.405 19.7926 78.8321 20.214 78.1029 20.517C77.3785 20.8153 76.5428 20.9645 75.5958 20.9645C74.1517 20.9645 73.0011 20.6638 72.1441 20.0625C71.2918 19.4564 70.7923 18.6326 70.6455 17.5909L73.6214 17.4347C73.7113 17.875 73.9291 18.2112 74.2748 18.4432C74.6204 18.6705 75.0631 18.7841 75.6029 18.7841C76.1332 18.7841 76.5593 18.6823 76.8813 18.4787C77.208 18.2704 77.3737 18.0028 77.3785 17.6761C77.3737 17.4015 77.2577 17.1766 77.0305 17.0014C76.8032 16.8215 76.4528 16.6842 75.9793 16.5895L74.0901 16.2131C73.0248 16 72.2317 15.6307 71.7108 15.1051C71.1948 14.5795 70.9367 13.9096 70.9367 13.0952C70.9367 12.3944 71.1261 11.7907 71.5049 11.2841C71.8884 10.7775 72.4258 10.3868 73.1171 10.1122C73.8131 9.8376 74.6275 9.70029 75.5603 9.70029C76.9381 9.70029 78.0224 9.99148 78.8131 10.5739C79.6086 11.1563 80.0726 11.9493 80.2052 12.9531Z" fill="black"/>
  <path d="M52.8862 20.7514V9.84233H55.7698V11.767H55.8976C56.1249 11.1278 56.5037 10.6236 57.034 10.2543C57.5643 9.88495 58.1987 9.70029 58.9374 9.70029C59.6855 9.70029 60.3223 9.88731 60.8479 10.2614C61.3734 10.6307 61.7238 11.1326 61.899 11.767H62.0127C62.2352 11.142 62.6377 10.6425 63.22 10.2685C63.8072 9.88968 64.5008 9.70029 65.301 9.70029C66.319 9.70029 67.1452 10.0246 67.7797 10.6733C68.4189 11.3172 68.7385 12.2311 68.7385 13.4148V20.7514H65.72V14.0114C65.72 13.4053 65.5591 12.9508 65.2371 12.6477C64.9151 12.3447 64.5127 12.1932 64.0297 12.1932C63.4805 12.1932 63.052 12.3684 62.7442 12.7188C62.4364 13.0644 62.2825 13.5213 62.2825 14.0895V20.7514H59.3493V13.9474C59.3493 13.4124 59.1954 12.9863 58.8876 12.669C58.5846 12.3518 58.1845 12.1932 57.6874 12.1932C57.3512 12.1932 57.0482 12.2784 56.7783 12.4489C56.5131 12.6146 56.3024 12.849 56.1462 13.152C55.9899 13.4503 55.9118 13.8007 55.9118 14.2031V20.7514H52.8862Z" fill="black"/>
  <path d="M44.7026 20.7514V9.84233H47.6359V11.7457H47.7495C47.9484 11.0687 48.2822 10.5573 48.7509 10.2116C49.2197 9.86127 49.7595 9.68608 50.3703 9.68608C50.5218 9.68608 50.6851 9.69555 50.8603 9.71449C51.0355 9.73343 51.1894 9.75947 51.322 9.79261V12.4773C51.1799 12.4347 50.9834 12.3968 50.7325 12.3636C50.4815 12.3305 50.2519 12.3139 50.0435 12.3139C49.5985 12.3139 49.2007 12.411 48.8504 12.6051C48.5047 12.7945 48.2301 13.0597 48.0265 13.4006C47.8276 13.7415 47.7282 14.1345 47.7282 14.5795V20.7514H44.7026Z" fill="black"/>
  <path d="M37.3659 20.9645C36.2627 20.9645 35.3086 20.7301 34.5037 20.2614C33.7035 19.7879 33.0856 19.1297 32.65 18.2869C32.2144 17.4394 31.9966 16.4569 31.9966 15.3395C31.9966 14.2126 32.2144 13.2277 32.65 12.3849C33.0856 11.5374 33.7035 10.8793 34.5037 10.4105C35.3086 9.93703 36.2627 9.70029 37.3659 9.70029C38.4691 9.70029 39.4208 9.93703 40.221 10.4105C41.0259 10.8793 41.6462 11.5374 42.0818 12.3849C42.5174 13.2277 42.7352 14.2126 42.7352 15.3395C42.7352 16.4569 42.5174 17.4394 42.0818 18.2869C41.6462 19.1297 41.0259 19.7879 40.221 20.2614C39.4208 20.7301 38.4691 20.9645 37.3659 20.9645ZM37.3801 18.6207C37.882 18.6207 38.301 18.4787 38.6372 18.1946C38.9734 17.9058 39.2267 17.5128 39.3972 17.0156C39.5723 16.5185 39.6599 15.9527 39.6599 15.3182C39.6599 14.6837 39.5723 14.1179 39.3972 13.6207C39.2267 13.1236 38.9734 12.7306 38.6372 12.4418C38.301 12.1529 37.882 12.0085 37.3801 12.0085C36.8735 12.0085 36.4473 12.1529 36.1017 12.4418C35.7608 12.7306 35.5027 13.1236 35.3275 13.6207C35.1571 14.1179 35.0719 14.6837 35.0719 15.3182C35.0719 15.9527 35.1571 16.5185 35.3275 17.0156C35.5027 17.5128 35.7608 17.9058 36.1017 18.1946C36.4473 18.4787 36.8735 18.6207 37.3801 18.6207Z" fill="black"/>
  <path d="M30.979 9.84232V12.115H24.2461V9.84232H30.979ZM25.7873 20.7514V9.05397C25.7873 8.26325 25.9412 7.60747 26.2489 7.08664C26.5614 6.56581 26.9876 6.17518 27.5273 5.91476C28.0671 5.65435 28.6803 5.52414 29.3668 5.52414C29.8308 5.52414 30.2546 5.55965 30.6381 5.63067C31.0264 5.7017 31.3152 5.76562 31.5046 5.82244L30.9648 8.09516C30.8465 8.05728 30.6997 8.02177 30.5245 7.98863C30.354 7.95548 30.1789 7.93891 29.9989 7.93891C29.5539 7.93891 29.2437 8.04308 29.0685 8.25141C28.8933 8.45501 28.8058 8.74147 28.8058 9.11079V20.7514H25.7873Z" fill="black"/>
</svg>