<svg xmlns="http://www.w3.org/2000/svg" width="12" height="12" viewBox="0 0 12 12" fill="none">
  <path d="M0 1C0 0.447715 0.447715 0 1 0H11C11.5523 0 12 0.447715 12 1C12 1.55228 11.5523 2 11 2H1C0.447715 2 0 1.55228 0 1Z" fill="#303436"/>
  <path d="M0 6C0 5.44772 0.447715 5 1 5H11C11.5523 5 12 5.44772 12 6C12 6.55228 11.5523 7 11 7H1C0.447715 7 0 6.55228 0 6Z" fill="#303436"/>
  <path d="M0 11C0 10.4477 0.447715 10 1 10H11C11.5523 10 12 10.4477 12 11C12 11.5523 11.5523 12 11 12H1C0.447715 12 0 11.5523 0 11Z" fill="#303436"/>
</svg>